# xmcd
#
# Track frame offsets: 
#        150
#        25284
#        45951
#        66848
#        88893
#        109367
#        127196
#        145281
#        169106
#        187355
#        212022
#        235327
#        258195
#        281365
#        303675
#
# Disc length: 4327 seconds
#
# Revision: 0
# Processed by: cddbd v1.5.1PL2 Copyright (c) Steve Scherf et al.
# Submitted via: ExactAudioCopy v0.95b3
#
DISCID=e610e50f
DTITLE=动力火车 - 合辑
DYEAR=2000
DGENRE=Pop
TTITLE0=执爱
TTITLE1=回想
TTITLE2=寂寞是思念
TTITLE3=远航
TTITLE4=Happy By Your Side
TTITLE5=沉重的记忆
TTITLE6=寻觅幸福的感觉 
TTITLE7=我在等
TTITLE8=多想给你一些
TTITLE9=第二次分手
TTITLE10=不要再说爱我
TTITLE11=背叛情歌
TTITLE12=天真的催眠
TTITLE13=还隐隐作痛
TTITLE14=你快乐所以我快乐
EXTD=
EXTT0=
EXTT1=
EXTT2=
EXTT3=
EXTT4=
EXTT5=
EXTT6=
EXTT7=
EXTT8=
EXTT9=
EXTT10=
EXTT11=
EXTT12=
EXTT13=
EXTT14=
PLAYORDER=
